<svg version="1.1" xmlns="http://www.w3.org/2000/svg" viewBox="0 0 1187 543" width="1187" height="543">
  <!-- svg-source:excalidraw -->
  
  <defs>
    <style class="style-fonts">
      @font-face {
        font-family: "Virgil";
        src: url("https://file%2B.vscode-resource.vscode-cdn.net/c%3A/Users/reiji/.vscode/extensions/pomdtr.excalidraw-editor-3.7.4/public//dist/excalidraw-assets/Virgil.woff2");
      }
      @font-face {
        font-family: "Cascadia";
        src: url("https://file%2B.vscode-resource.vscode-cdn.net/c%3A/Users/reiji/.vscode/extensions/pomdtr.excalidraw-editor-3.7.4/public//dist/excalidraw-assets/Cascadia.woff2");
      }
      @font-face {
        font-family: "Assistant";
        src: url("https://file%2B.vscode-resource.vscode-cdn.net/c%3A/Users/reiji/.vscode/extensions/pomdtr.excalidraw-editor-3.7.4/public//dist/excalidraw-assets/Assistant-Regular.woff2");
      }
    </style>
    
  </defs>
  <rect x="0" y="0" width="1187" height="543" fill="#ffffff"></rect><g stroke-linecap="round" transform="translate(10 223) rotate(0 51 59.5)"><path d="M25.5 0 C42.23 1.54, 53.6 1.29, 76.5 0 M25.5 0 C45.86 0.83, 64.39 1.2, 76.5 0 M76.5 0 C94.38 0.47, 102.11 6.67, 102 25.5 M76.5 0 C93.77 -0.15, 100.69 8.77, 102 25.5 M102 25.5 C103.35 44.01, 100.79 64.89, 102 93.5 M102 25.5 C102.8 50.34, 101.86 75.17, 102 93.5 M102 93.5 C103.08 109.63, 92.22 118.04, 76.5 119 M102 93.5 C101.59 111.64, 93.77 118.54, 76.5 119 M76.5 119 C55.24 117.62, 35.81 118.98, 25.5 119 M76.5 119 C58.45 120.08, 41.15 118.86, 25.5 119 M25.5 119 C9.76 120.24, 1.83 109.15, 0 93.5 M25.5 119 C8.89 116.83, -0.63 109.01, 0 93.5 M0 93.5 C0.21 67.95, 1.67 43.95, 0 25.5 M0 93.5 C0.78 79.56, 0.84 63.94, 0 25.5 M0 25.5 C-0.72 7.03, 7.23 -1.95, 25.5 0 M0 25.5 C1.75 7.5, 8.66 2.05, 25.5 0" stroke="#1e1e1e" stroke-width="2" fill="none"></path></g><g transform="translate(40.120025634765625 270) rotate(0 20.879974365234375 12.5)"><text x="20.879974365234375" y="0" font-family="Virgil, Segoe UI Emoji" font-size="20px" fill="#1e1e1e" text-anchor="middle" style="white-space: pre;" direction="ltr" dominant-baseline="text-before-edge">user</text></g><g stroke-linecap="round" transform="translate(276 198) rotate(0 103 85)"><path d="M32 0 C60.62 1.93, 92.31 0.4, 174 0 M32 0 C66.1 -0.19, 100.74 -0.84, 174 0 M174 0 C195.68 1.3, 206.75 11.98, 206 32 M174 0 C197.11 0.34, 205.5 9.99, 206 32 M206 32 C204.69 57.29, 207.37 78.5, 206 138 M206 32 C205.4 58.24, 205.99 83.02, 206 138 M206 138 C206.26 157.34, 197.22 170.58, 174 170 M206 138 C207.57 159.7, 195.13 170.98, 174 170 M174 170 C134.81 172.38, 93.78 170.16, 32 170 M174 170 C144.7 168.64, 115.77 168.1, 32 170 M32 170 C10.53 169.83, -0.41 158.96, 0 138 M32 170 C9.98 170.33, 0.23 159.77, 0 138 M0 138 C0.11 113.58, 0.1 88.32, 0 32 M0 138 C0.39 97.46, 0.91 54.74, 0 32 M0 32 C0.47 10.99, 10.77 -0.15, 32 0 M0 32 C1.51 9.41, 11.01 -0.55, 32 0" stroke="#1e1e1e" stroke-width="2" fill="none"></path></g><g transform="translate(308.7600631713867 258) rotate(0 70.23993682861328 25)"><text x="70.23993682861328" y="0" font-family="Virgil, Segoe UI Emoji" font-size="20px" fill="#1e1e1e" text-anchor="middle" style="white-space: pre;" direction="ltr" dominant-baseline="text-before-edge">api gateway</text><text x="70.23993682861328" y="25" font-family="Virgil, Segoe UI Emoji" font-size="20px" fill="#1e1e1e" text-anchor="middle" style="white-space: pre;" direction="ltr" dominant-baseline="text-before-edge">+ user service</text></g><g stroke-linecap="round"><g transform="translate(124 285.00827011620765) rotate(0 73 0.07872717121080086)"><path d="M-0.6 0.91 C23.37 0.85, 120.7 -0.22, 145.02 -0.19 M1.29 0.34 C25.52 0.44, 123.4 1.34, 147.22 1.17" stroke="#1e1e1e" stroke-width="2" fill="none"></path></g><g transform="translate(124 285.00827011620765) rotate(0 73 0.07872717121080086)"><path d="M119 11.37 C131.79 5.79, 140.98 2.19, 147.22 1.17 M119 11.37 C128.9 7.17, 140.9 3.33, 147.22 1.17" stroke="#1e1e1e" stroke-width="2" fill="none"></path></g><g transform="translate(124 285.00827011620765) rotate(0 73 0.07872717121080086)"><path d="M119.05 -9.16 C131.84 -6.52, 141.01 -1.92, 147.22 1.17 M119.05 -9.16 C129.09 -5.55, 141.07 -1.59, 147.22 1.17" stroke="#1e1e1e" stroke-width="2" fill="none"></path></g></g><mask></mask><g transform="translate(138 247) rotate(0 52.80994415283203 12.5)"><text x="0" y="0" font-family="Virgil, Segoe UI Emoji" font-size="20px" fill="#1e1e1e" text-anchor="start" style="white-space: pre;" direction="ltr" dominant-baseline="text-before-edge">restful api</text></g><g stroke-linecap="round" transform="translate(717 437) rotate(0 94.5 31.5)"><path d="M15.75 0 C71.05 1.22, 130.61 -1.3, 173.25 0 M15.75 0 C71.5 -2.17, 125.61 -2.13, 173.25 0 M173.25 0 C182.15 -1.62, 190.34 5.34, 189 15.75 M173.25 0 C183.35 -1, 186.79 6.99, 189 15.75 M189 15.75 C188.16 22.44, 187.7 32.44, 189 47.25 M189 15.75 C189.05 24.71, 187.87 31.43, 189 47.25 M189 47.25 C190.79 57.91, 182.59 62.64, 173.25 63 M189 47.25 C190.57 55.78, 185.92 64.2, 173.25 63 M173.25 63 C120.36 61.67, 65.39 61.87, 15.75 63 M173.25 63 C130.83 63.25, 88.92 63.02, 15.75 63 M15.75 63 C4.6 62.61, -1.06 56.51, 0 47.25 M15.75 63 C6.82 65.14, -1.78 59.27, 0 47.25 M0 47.25 C0.88 38.02, 0.99 26.28, 0 15.75 M0 47.25 C0.69 39, -0.88 32.08, 0 15.75 M0 15.75 C0.91 5.26, 5.14 1.03, 15.75 0 M0 15.75 C0.95 4.42, 3.37 -1.01, 15.75 0" stroke="#1e1e1e" stroke-width="2" fill="none"></path></g><g transform="translate(755.3400573730469 456) rotate(0 56.159942626953125 12.5)"><text x="56.159942626953125" y="0" font-family="Virgil, Segoe UI Emoji" font-size="20px" fill="#1e1e1e" text-anchor="middle" style="white-space: pre;" direction="ltr" dominant-baseline="text-before-edge">noti service</text></g><g stroke-linecap="round" transform="translate(629 203) rotate(0 149.5 35.5)"><path d="M17.75 0 C75.98 1.26, 133.12 1.7, 281.25 0 M17.75 0 C80.54 -0.72, 143.71 0.38, 281.25 0 M281.25 0 C291.47 1.52, 299.53 4.19, 299 17.75 M281.25 0 C292.39 2.23, 297.42 3.75, 299 17.75 M299 17.75 C297.25 27.07, 297.65 32.04, 299 53.25 M299 17.75 C298.77 31.45, 299.57 44.63, 299 53.25 M299 53.25 C299.64 63.5, 291.64 71.93, 281.25 71 M299 53.25 C299.29 63.6, 290.99 70.19, 281.25 71 M281.25 71 C205.36 67.84, 132.65 69.08, 17.75 71 M281.25 71 C217.01 70.51, 152.47 70.87, 17.75 71 M17.75 71 C7.49 70.02, 1.34 63.1, 0 53.25 M17.75 71 C3.87 71.71, 1.11 66.02, 0 53.25 M0 53.25 C0.89 44.72, 0.99 32.48, 0 17.75 M0 53.25 C0.68 41.75, -0.21 32.09, 0 17.75 M0 17.75 C-1.76 4.81, 5.28 0.43, 17.75 0 M0 17.75 C-0.34 5.2, 5.69 0.79, 17.75 0" stroke="#1e1e1e" stroke-width="2" fill="none"></path></g><g transform="translate(713.9000625610352 226) rotate(0 64.59993743896484 12.5)"><text x="64.59993743896484" y="0" font-family="Virgil, Segoe UI Emoji" font-size="20px" fill="#1e1e1e" text-anchor="middle" style="white-space: pre;" direction="ltr" dominant-baseline="text-before-edge">event service</text></g><g stroke-linecap="round"><g transform="translate(493 258.9518015959307) rotate(0 62 -0.8708191109556651)"><path d="M-1.02 -0.2 C19.9 -0.45, 104.08 -1.4, 124.97 -1.53 M0.64 -1.34 C21.53 -1.99, 104.03 -3.28, 124.53 -3.55" stroke="#1e1e1e" stroke-width="2" fill="none"></path></g><g transform="translate(493 258.9518015959307) rotate(0 62 -0.8708191109556651)"><path d="M96.49 7.13 C103.3 6.26, 111.1 2.38, 124.53 -3.55 M96.49 7.13 C106.71 4.13, 116.36 -1.07, 124.53 -3.55" stroke="#1e1e1e" stroke-width="2" fill="none"></path></g><g transform="translate(493 258.9518015959307) rotate(0 62 -0.8708191109556651)"><path d="M96.19 -13.39 C103.07 -9.03, 110.95 -7.69, 124.53 -3.55 M96.19 -13.39 C106.53 -8.94, 116.29 -6.7, 124.53 -3.55" stroke="#1e1e1e" stroke-width="2" fill="none"></path></g></g><mask></mask><g stroke-linecap="round"><g transform="translate(618 238.46712544186016) rotate(0 -60.5 -0.4829481974032319)"><path d="M-0.35 0.73 C-20.37 0.47, -100.01 -0.93, -120.28 -1.38 M1.67 0.07 C-18.43 -0.05, -100.63 0.14, -120.85 -0.06" stroke="#1e1e1e" stroke-width="2" fill="none"></path></g><g transform="translate(618 238.46712544186016) rotate(0 -60.5 -0.4829481974032319)"><path d="M-92.62 -10.23 C-99.53 -6.17, -109.58 -6.06, -120.85 -0.06 M-92.62 -10.23 C-98.84 -7.88, -104.41 -5.34, -120.85 -0.06" stroke="#1e1e1e" stroke-width="2" fill="none"></path></g><g transform="translate(618 238.46712544186016) rotate(0 -60.5 -0.4829481974032319)"><path d="M-92.68 10.29 C-99.61 8.42, -109.65 2.61, -120.85 -0.06 M-92.68 10.29 C-99 8.13, -104.56 6.15, -120.85 -0.06" stroke="#1e1e1e" stroke-width="2" fill="none"></path></g></g><mask></mask><g transform="translate(534 200) rotate(0 22.139984130859375 12.5)"><text x="0" y="0" font-family="Virgil, Segoe UI Emoji" font-size="20px" fill="#1e1e1e" text-anchor="start" style="white-space: pre;" direction="ltr" dominant-baseline="text-before-edge">Grpc</text></g><g stroke-linecap="round" transform="translate(321 19) rotate(0 75 43.5)"><path d="M59.54 1.49 C70.29 -0.42, 85.53 -0.09, 96.93 1.72 C108.33 3.53, 119.66 7.64, 127.96 12.35 C136.26 17.07, 143.18 23.67, 146.73 30 C150.28 36.32, 151.25 43.52, 149.25 50.29 C147.24 57.07, 141.6 65.19, 134.69 70.63 C127.79 76.07, 118.19 80.29, 107.8 82.94 C97.42 85.59, 84 86.94, 72.39 86.51 C60.77 86.08, 48.35 83.58, 38.1 80.37 C27.85 77.17, 17.33 72.82, 10.86 67.29 C4.39 61.75, 0.17 54.04, -0.71 47.18 C-1.59 40.32, 0.93 32.48, 5.58 26.14 C10.23 19.79, 17.72 13.43, 27.21 9.12 C36.7 4.82, 55.84 1.67, 62.51 0.31 C69.18 -1.05, 66.96 0.15, 67.24 0.96 M87.93 2.06 C98.84 2.76, 109.86 5.29, 119.11 9.1 C128.36 12.9, 138.13 18.62, 143.42 24.9 C148.72 31.18, 151.66 40.17, 150.89 46.79 C150.11 53.41, 144.82 59.05, 138.76 64.64 C132.7 70.22, 124.33 76.4, 114.53 80.3 C104.74 84.2, 91.66 87.31, 80.01 88.05 C68.35 88.79, 55.07 87.66, 44.63 84.74 C34.18 81.81, 24.55 75.96, 17.33 70.5 C10.1 65.04, 3.49 58.72, 1.27 51.97 C-0.95 45.23, 0.67 36.33, 4 30.01 C7.32 23.69, 13.3 18.49, 21.23 14.06 C29.15 9.63, 40.42 5.48, 51.57 3.44 C62.71 1.39, 82.3 2.27, 88.09 1.78 C93.87 1.29, 86.47 0.02, 86.29 0.5" stroke="#1e1e1e" stroke-width="2" fill="none"></path></g><g transform="translate(354.2070426805402 50.24085501838519) rotate(0 41.75994873046875 12.5)"><text x="41.75994873046875" y="0" font-family="Virgil, Segoe UI Emoji" font-size="20px" fill="#1e1e1e" text-anchor="middle" style="white-space: pre;" direction="ltr" dominant-baseline="text-before-edge">postgres</text></g><g stroke-linecap="round"><g transform="translate(389.35552722816766 186) rotate(0 0.05081121541738298 -33.57643318593071)"><path d="M-0.56 -1.16 C-0.69 -12.23, -0.84 -55.51, -0.61 -66.47 M1.34 0.85 C1.59 -10.57, 1.88 -57.18, 1.72 -68.23" stroke="#1e1e1e" stroke-width="2" fill="none"></path></g><g transform="translate(389.35552722816766 186) rotate(0 0.05081121541738298 -33.57643318593071)"><path d="M12.04 -40.06 C6.88 -50.12, 6.72 -56.58, 1.72 -68.23 M12.04 -40.06 C8.45 -49.12, 5.34 -57.9, 1.72 -68.23" stroke="#1e1e1e" stroke-width="2" fill="none"></path></g><g transform="translate(389.35552722816766 186) rotate(0 0.05081121541738298 -33.57643318593071)"><path d="M-8.48 -40.02 C-7.21 -50, -0.94 -56.46, 1.72 -68.23 M-8.48 -40.02 C-5.5 -49.24, -2.04 -58.04, 1.72 -68.23" stroke="#1e1e1e" stroke-width="2" fill="none"></path></g></g><mask></mask><g stroke-linecap="round" transform="translate(985 343) rotate(0 96 31.5)"><path d="M15.75 0 C80.08 2.31, 141.07 0.29, 176.25 0 M15.75 0 C49.51 0.7, 84.41 0.97, 176.25 0 M176.25 0 C188.74 0.75, 190.76 5.52, 192 15.75 M176.25 0 C188.59 2.28, 193.27 5.31, 192 15.75 M192 15.75 C192.43 26.91, 191.38 39.05, 192 47.25 M192 15.75 C191.68 25.65, 191.28 38.11, 192 47.25 M192 47.25 C190.91 56.71, 185.27 63.71, 176.25 63 M192 47.25 C190.76 57.59, 185.04 64.73, 176.25 63 M176.25 63 C130.11 62.84, 86.79 61.63, 15.75 63 M176.25 63 C115.85 64.78, 53.4 64.04, 15.75 63 M15.75 63 C5.67 62.49, -1.83 58.24, 0 47.25 M15.75 63 C3.75 64.22, -0.33 59.75, 0 47.25 M0 47.25 C-0.78 35.33, 0.54 24.14, 0 15.75 M0 47.25 C1.02 37.74, 0.02 28.34, 0 15.75 M0 15.75 C-0.05 5.26, 4.82 1.58, 15.75 0 M0 15.75 C1.99 6.83, 4.01 -0.12, 15.75 0" stroke="#1e1e1e" stroke-width="2" fill="none"></path></g><g transform="translate(1030.680046081543 362) rotate(0 50.31995391845703 12.5)"><text x="50.31995391845703" y="0" font-family="Virgil, Segoe UI Emoji" font-size="20px" fill="#1e1e1e" text-anchor="middle" style="white-space: pre;" direction="ltr" dominant-baseline="text-before-edge">MQ (redis)</text></g><g stroke-linecap="round"><g transform="translate(940 258.3342274052122) rotate(0 27.82962567521463 37.83288629739391)"><path d="M1.16 0.11 C10.56 12.48, 46.9 62.57, 56.13 75.33" stroke="#1e1e1e" stroke-width="2.5" fill="none" stroke-dasharray="8 10"></path></g><g transform="translate(940 258.3342274052122) rotate(0 27.82962567521463 37.83288629739391)"><path d="M31.28 58.53 C38.6 63.79, 44.83 69.2, 56.13 75.33" stroke="#1e1e1e" stroke-width="2.5" fill="none"></path></g><g transform="translate(940 258.3342274052122) rotate(0 27.82962567521463 37.83288629739391)"><path d="M47.89 46.48 C50.66 55.29, 52.23 64.08, 56.13 75.33" stroke="#1e1e1e" stroke-width="2.5" fill="none"></path></g></g><mask></mask><g stroke-linecap="round"><g transform="translate(1012.710104067995 414) rotate(0 -51.35505203399748 17.11579963906331)"><path d="M-0.23 -0.26 C-17.26 5.27, -84.8 28.09, -101.72 33.97" stroke="#1e1e1e" stroke-width="2.5" fill="none" stroke-dasharray="8 10"></path></g><g transform="translate(1012.710104067995 414) rotate(0 -51.35505203399748 17.11579963906331)"><path d="M-78.36 15.14 C-86.54 23.09, -94.41 29.44, -101.72 33.97" stroke="#1e1e1e" stroke-width="2.5" fill="none"></path></g><g transform="translate(1012.710104067995 414) rotate(0 -51.35505203399748 17.11579963906331)"><path d="M-71.72 34.56 C-82.27 35.96, -92.37 35.76, -101.72 33.97" stroke="#1e1e1e" stroke-width="2.5" fill="none"></path></g></g><mask></mask><g transform="translate(978 229) rotate(0 65.57994079589844 25)"><text x="0" y="0" font-family="Virgil, Segoe UI Emoji" font-size="20px" fill="#1e1e1e" text-anchor="start" style="white-space: pre;" direction="ltr" dominant-baseline="text-before-edge">update event</text><text x="0" y="25" font-family="Virgil, Segoe UI Emoji" font-size="20px" fill="#1e1e1e" text-anchor="start" style="white-space: pre;" direction="ltr" dominant-baseline="text-before-edge">cancel event</text></g><g stroke-linecap="round" transform="translate(359 399) rotate(0 76 67)"><path d="M32 0 C51.67 -1.12, 73.54 0.75, 120 0 M120 0 C141.78 -1.81, 151.54 10.26, 152 32 M152 32 C152.66 57.4, 153.19 80.87, 152 102 M152 102 C150.27 123, 142.84 132.68, 120 134 M120 134 C87.44 132.9, 57.68 133.58, 32 134 M32 134 C11.96 133.16, 1.37 124.17, 0 102 M0 102 C1.12 76.94, 1.35 51.5, 0 32 M0 32 C-1.12 9.63, 11.41 1.46, 32 0" stroke="#1e1e1e" stroke-width="2.5" fill="none" stroke-dasharray="8 10"></path></g><g transform="translate(416.9500198364258 453.5) rotate(0 18.04998016357422 12.5)"><text x="18.04998016357422" y="0" font-family="Virgil, Segoe UI Emoji" font-size="20px" fill="#1e1e1e" text-anchor="middle" style="white-space: pre;" direction="ltr" dominant-baseline="text-before-edge">noti</text></g><g stroke-linecap="round"><g transform="translate(711 462.0224746624526) rotate(0 -93 6.820849987046813)"><path d="M0.67 0.62 C-30.13 2.8, -154.27 10.91, -185.47 13.02" stroke="#1e1e1e" stroke-width="2.5" fill="none" stroke-dasharray="8 10"></path></g><g transform="translate(711 462.0224746624526) rotate(0 -93 6.820849987046813)"><path d="M-158.02 0.92 C-163.77 4.94, -172.6 6.15, -185.47 13.02" stroke="#1e1e1e" stroke-width="2.5" fill="none"></path></g><g transform="translate(711 462.0224746624526) rotate(0 -93 6.820849987046813)"><path d="M-156.66 21.39 C-162.74 20.37, -171.9 16.53, -185.47 13.02" stroke="#1e1e1e" stroke-width="2.5" fill="none"></path></g></g><mask></mask><g stroke-linecap="round" transform="translate(698 10) rotate(0 66.5 36.5)"><path d="M87.01 2.09 C97.52 3.51, 109.9 7.81, 117.24 12.23 C124.58 16.66, 129.15 22.61, 131.05 28.66 C132.95 34.71, 131.96 42.61, 128.66 48.51 C125.36 54.42, 119.38 59.99, 111.27 64.07 C103.15 68.15, 90.92 71.95, 79.98 72.99 C69.04 74.03, 56.01 72.49, 45.6 70.31 C35.2 68.13, 25.06 64.41, 17.53 59.91 C9.99 55.41, 2.79 49, 0.4 43.32 C-2 37.64, -0.62 31.69, 3.17 25.83 C6.96 19.98, 14.8 12.48, 23.16 8.18 C31.51 3.88, 41.15 0.83, 53.3 0.03 C65.44 -0.77, 88.12 2.3, 96.02 3.38 C103.92 4.47, 101.24 5.86, 100.69 6.56 M68.07 1.28 C78.28 0.78, 91.09 1.16, 100.89 4.37 C110.69 7.58, 121.59 15.08, 126.89 20.54 C132.19 26, 133.23 30.99, 132.69 37.13 C132.15 43.26, 129.81 51.82, 123.65 57.36 C117.48 62.89, 105.81 67.89, 95.68 70.36 C85.56 72.82, 73.84 72.5, 62.87 72.15 C51.91 71.79, 39.38 71.16, 29.91 68.24 C20.43 65.31, 10.85 60.31, 6.02 54.6 C1.19 48.89, 0.35 40.33, 0.92 33.98 C1.49 27.64, 3.54 21.33, 9.44 16.53 C15.35 11.74, 26.53 8.12, 36.35 5.23 C46.17 2.35, 63.01 -0.17, 68.35 -0.76 C73.69 -1.34, 68.21 1.09, 68.38 1.73" stroke="#1e1e1e" stroke-width="2" fill="none"></path></g><g transform="translate(737.3874256013876 34.190602486691006) rotate(0 27.08997344970703 12.5)"><text x="27.08997344970703" y="0" font-family="Virgil, Segoe UI Emoji" font-size="20px" fill="#1e1e1e" text-anchor="middle" style="white-space: pre;" direction="ltr" dominant-baseline="text-before-edge">mongo</text></g><g stroke-linecap="round"><g transform="translate(779 196) rotate(0 -1.5 -50.5)"><path d="M-0.47 0.75 C-1.21 -16.15, -3.26 -84.22, -3.63 -101.21 M1.48 0.09 C1.08 -16.64, -0.46 -83.11, -1.25 -99.78" stroke="#1e1e1e" stroke-width="2" fill="none"></path></g><g transform="translate(779 196) rotate(0 -1.5 -50.5)"><path d="M9.95 -71.95 C7.07 -83.19, 1.4 -91.73, -1.25 -99.78 M9.95 -71.95 C6.75 -80.54, 3.17 -87.87, -1.25 -99.78" stroke="#1e1e1e" stroke-width="2" fill="none"></path></g><g transform="translate(779 196) rotate(0 -1.5 -50.5)"><path d="M-10.56 -71.26 C-5.96 -82.67, -4.16 -91.46, -1.25 -99.78 M-10.56 -71.26 C-7.88 -80.21, -5.58 -87.73, -1.25 -99.78" stroke="#1e1e1e" stroke-width="2" fill="none"></path></g></g><mask></mask></svg>